<?xml version="1.0" encoding="utf-8"?>
<!-- Generator: Adobe Illustrator 16.0.0, SVG Export Plug-In . SVG Version: 6.00 Build 0)  -->
<!DOCTYPE svg PUBLIC "-//W3C//DTD SVG 1.1//EN" "http://www.w3.org/Graphics/SVG/1.1/DTD/svg11.dtd">
<svg version="1.1" xmlns="http://www.w3.org/2000/svg" xmlns:xlink="http://www.w3.org/1999/xlink" x="0px" y="0px" width="30px"
	 height="30px" viewBox="291 381 30 30" enable-background="new 291 381 30 30" xml:space="preserve">
<g id="Capa_1">
	<g id="_x38__2_">
		<g>
			<path fill="#186D27" d="M306,90C136.992,90,0,226.992,0,396s136.992,306,306,306s306-137.012,306-306S475.008,90,306,90z
				 M306,663.75C158.125,663.75,38.25,543.875,38.25,396c0-147.875,119.875-267.75,267.75-267.75
				c147.875,0,267.75,119.875,267.75,267.75C573.75,543.875,453.875,663.75,306,663.75z M420.75,376.875h-95.625V281.25
				c0-10.557-8.568-19.125-19.125-19.125c-10.557,0-19.125,8.568-19.125,19.125v95.625H191.25c-10.557,0-19.125,8.568-19.125,19.125
				c0,10.557,8.568,19.125,19.125,19.125h95.625v95.625c0,10.557,8.568,19.125,19.125,19.125c10.557,0,19.125-8.568,19.125-19.125
				v-95.625h95.625c10.557,0,19.125-8.568,19.125-19.125C439.875,385.443,431.307,376.875,420.75,376.875z"/>
		</g>
	</g>
</g>
<g id="Clicked" display="none">
	<g id="_x38__1_" display="inline" opacity="0.5">
		<g>
			<path fill="#186D27" d="M306,90C136.992,90,0,226.992,0,396s136.992,306,306,306s306-137.012,306-306S475.008,90,306,90z
				 M306,663.75C158.125,663.75,38.25,543.875,38.25,396c0-147.875,119.875-267.75,267.75-267.75
				c147.875,0,267.75,119.875,267.75,267.75C573.75,543.875,453.875,663.75,306,663.75z M420.75,376.875h-95.625V281.25
				c0-10.557-8.568-19.125-19.125-19.125c-10.557,0-19.125,8.568-19.125,19.125v95.625H191.25c-10.557,0-19.125,8.568-19.125,19.125
				c0,10.557,8.568,19.125,19.125,19.125h95.625v95.625c0,10.557,8.568,19.125,19.125,19.125c10.557,0,19.125-8.568,19.125-19.125
				v-95.625h95.625c10.557,0,19.125-8.568,19.125-19.125C439.875,385.443,431.307,376.875,420.75,376.875z"/>
		</g>
	</g>
</g>
</svg>
