<?xml version="1.0" encoding="utf-8"?>
<!-- Generator: Adobe Illustrator 16.0.0, SVG Export Plug-In . SVG Version: 6.00 Build 0)  -->
<!DOCTYPE svg PUBLIC "-//W3C//DTD SVG 1.1//EN" "http://www.w3.org/Graphics/SVG/1.1/DTD/svg11.dtd">
<svg version="1.1" id="Layer_1" xmlns="http://www.w3.org/2000/svg" xmlns:xlink="http://www.w3.org/1999/xlink" x="0px" y="0px"
	 width="50px" height="50px" viewBox="0 0 50 50" enable-background="new 0 0 50 50" xml:space="preserve">
<path d="M36.936,17.986c-0.2-0.118-1.117-0.219-1.117-0.219l-3.433,0.498l-1.116,0.319c0,0-0.927-2.132-1.915-2.634
	c-2.914-1.476-2.834-1.835-2.834-1.835s0.762-3.52,0.839-3.87c0.075-0.352-0.358-1.875-2.275-1.796
	c-1.915,0.08-2.234,1.517-2.234,1.517l-0.039,1.316c0,0-0.358,0.2-0.16,0.719c0.199,0.519,0.679,1.116,0.679,1.116l-0.08,0.72
	l-5.506,2.593c0,0-1.277,0.997-2.674,1.277c-1.396,0.278-2.234,1.197-2.074,2.154c0.159,0.958,1.675,1.716,1.675,1.716
	s0.041,1.803,0.147,3.165c0.105,1.364,1.271,2.266,1.449,2.421c0.178,0.154,1.557,0.599,1.557,0.599s1.476,0.08,2.313-0.679
	c0.399,1.037,1.118,1.117,1.197,1.676c0.08,0.559-0.358,0.958,0.039,1.356c0.4,0.399,1.637,2.155,1.637,2.634
	s-0.519,6.703-0.519,6.703h0.719l0.559-1.994l0.117-0.195l0.241,1.272c0,0,0.28,1.077,1.517,1.157s1.436,0.025,1.755,0
	c0.32-0.025-1.196-2.913-1.236-3.232c-0.039-0.319,0.638,0.319,0.519-0.278c-0.031-0.152-0.114-0.547-0.225-1.059H27.6l0.438,3.012
	h0.638l-0.704-3.012h0.123l0.661,2.255l-0.04-1.795l-0.095-0.46h0.498v-0.418h-0.583l-1.041-5.076c0,0,0.662-0.071,1.341,0.447
	c0.678,0.519,0.117,7.975,0.117,7.975s-0.518,2.439-0.077,2.556c0.438,0.115,0.981,0.226,0.981,0.226s0.323,0.158,1.027,0.502
	c0.705,0.346,2.698,0.273,2.647-0.178c-0.053-0.448-0.671-0.913-0.671-0.913l-1.444-1.101l-0.268-1.326c0,0,1.315,0.359,1.316-0.279
	c0.002-0.639,0.086-2.037,0.156-3.312c0.071-1.274,0.682-4.549,0.682-5.985s-0.519-1.876-0.519-1.876l-1.516-1.196h0.639
	c0,0,1.716-0.52,0-5.107l0.478-0.279l0.479,0.319l3.191-0.398l0.297-0.49l0.582-0.148C36.936,19.064,37.136,18.106,36.936,17.986z
	 M17.996,18.613c0.932-0.015,2.075,0.77,2.541,0.744c0.465-0.026,0.81-0.648,1.634-0.915c0.825-0.266,1.451-0.109,1.931,0.276
	c0.478,0.387,0.478,1.516,0.478,1.516l-1.915,0.439c0,0-0.439-0.493-1.184-0.399c-0.745,0.094-1.236,0.784-1.236,0.784
	s-0.469-0.604-0.824-0.784c-0.355-0.179-1.783-0.931-2.262-0.917c-0.479,0.015-0.745-0.146-0.679-0.346
	C16.547,18.812,17.065,18.626,17.996,18.613z M23.276,24.771c-1.45,0.504-1.782-0.108-2.434,0.106
	c-0.652,0.213-1.331,1.808-2.98,2.206c-1.648,0.399-2.526-1.275-2.744-2.084c-0.207-0.774-0.208-3.422-0.208-3.422
	s1.689-0.28,1.876-0.239c0.186,0.04,0.558,0.957,0.558,0.957l0.146,2.795L18.143,25l0.119-1.706c0,0,1.21,0.277,1.476,0.199
	c0.267-0.079,0.599-0.52,0.599-0.52s0.281,0.652,1.198,0.561c0.918-0.094,1.264-1.011,1.264-1.011l1.954-0.533
	C24.752,21.99,24.726,24.265,23.276,24.771z M26.366,34.706c-0.325-1.51-0.789-3.64-0.883-4.071
	c-0.137-0.634-0.558-1.516,0.358-1.556c0.919-0.039,0.923,0.308,0.923,0.308l0.774,5.319H26.366z M27.973,34.706h-0.099
	l-0.388-1.659L27.973,34.706z"/>
</svg>
